<?xml version="1.0" encoding="utf-8"?>
<!-- Generator: Adobe Illustrator 15.0.0, SVG Export Plug-In . SVG Version: 6.00 Build 0)  -->
<!DOCTYPE svg PUBLIC "-//W3C//DTD SVG 1.1//EN" "http://www.w3.org/Graphics/SVG/1.1/DTD/svg11.dtd">
<svg version="1.1" id="controller-swip" xmlns="http://www.w3.org/2000/svg" xmlns:xlink="http://www.w3.org/1999/xlink" x="0px"
	 y="0px" width="98px" height="47px" viewBox="0 0 98 47" enable-background="new 0 0 98 47" xml:space="preserve">
<path opacity="0.3" fill="#FFFFFF" d="M87.206,5.758c0,2.895-2.347,5.242-5.241,5.242H6.447c-2.895,0-5.241-2.347-5.241-5.242V5.242
	C1.206,2.347,3.553,0,6.447,0h75.518c2.895,0,5.241,2.347,5.241,5.242V5.758z"/>
<path id="hand" fill="#FFFFFF" d="M30.16,23.418c-0.725,0-1.4,0.217-1.988,0.586c-0.346-2.031-1.967-3.566-3.918-3.566
	c-0.791,0-1.525,0.254-2.146,0.693c-0.578-1.639-2.021-2.799-3.715-2.799c-0.742,0-1.436,0.227-2.029,0.615V8.689
	c0-2.422-1.789-4.389-3.99-4.389c-2.205,0-3.988,1.967-3.988,4.389v19.789L6.971,26.73c-1.461-1.813-3.984-1.975-5.631-0.367
	c-1.646,1.609-1.797,4.381-0.334,6.191l8.703,10.773c1.75,1.883,4.736,3.664,7.301,3.664h8.57c4.734,0,8.572-3.777,8.572-8.436
	l-0.004-10.752C34.148,25.383,32.361,23.418,30.16,23.418z"/>
</svg>
