<?xml version="1.0" encoding="utf-8"?>
<!-- Generator: Adobe Illustrator 15.0.0, SVG Export Plug-In . SVG Version: 6.00 Build 0)  -->
<!DOCTYPE svg PUBLIC "-//W3C//DTD SVG 1.1//EN" "http://www.w3.org/Graphics/SVG/1.1/DTD/svg11.dtd">
<svg version="1.1" id="Layer_1" xmlns="http://www.w3.org/2000/svg" xmlns:xlink="http://www.w3.org/1999/xlink" x="0px" y="0px"
	 width="133px" height="88px" viewBox="0 0 133 88" enable-background="new 0 0 133 88" xml:space="preserve">
<g>
	<g id="btn-keyboard-r">
		<g>
			<path fill="#FFFFFF" d="M131,47L131,47v39.07l-39-0.002V47H131 M131.028,45H92.149C91.098,45,90,46.139,90,47.191v38.877
				C90,87.123,91.098,88,92.149,88h38.879c1.053,0,1.972-0.877,1.972-1.932V47.191C133,46.139,132.081,45,131.028,45L131.028,45z"/>
		</g>
		<g>
			<g>
				<polygon fill="#FFFFFF" points="115.575,58.951 114.966,59.563 121.602,66.199 99.773,66.199 99.773,67.063 121.603,67.063 
					114.966,73.697 115.575,74.309 123.254,66.631 				"/>
			</g>
		</g>
	</g>
	<g id="btn-keyboard-l">
		<g>
			<path fill="#FFFFFF" d="M40.85,47L41,47.191V86.07L2,86.068V47h39 M40.85,45H1.971C0.919,45,0,46.139,0,47.191v38.877
				C0,87.123,0.919,88,1.971,88H40.85c1.053,0,2.15-0.877,2.15-1.932V47.191C43,46.139,41.902,45,40.85,45L40.85,45z"/>
		</g>
		<g>
			<g>
				<polygon fill="#FFFFFF" points="9.595,66.631 17.271,74.309 17.883,73.697 11.247,67.063 33.073,67.063 33.073,66.199 
					11.247,66.199 17.883,59.563 17.271,58.951 				"/>
			</g>
		</g>
	</g>
	<g id="btn-keyboard-u" opacity="0.3">
		<g>
			<path fill="#FFFFFF" d="M86.11,2L86,1.93V41H47V2h39 M86.11,0H47.232C46.181,0,45,0.877,45,1.93v38.877
				C45,41.859,46.181,43,47.232,43H86.11c1.054,0,1.89-1.141,1.89-2.193V1.93C88,0.877,87.164,0,86.11,0L86.11,0z"/>
		</g>
		<g>
			<g>
				<polygon fill="#FFFFFF" points="66.596,9.627 58.919,17.307 59.529,17.916 66.165,11.281 66.165,33.107 67.028,33.107 
					67.028,11.281 73.665,17.916 74.274,17.307 				"/>
			</g>
		</g>
	</g>
	<g id="btn-keyboard-d" opacity="0.3">
		<g>
			<path fill="#FFFFFF" d="M86,47L86,47v39H47V47H86 M86.11,45H47.232C46.181,45,45,46.139,45,47.191v38.877
				c0,1.055,1.017,1.908,2.069,1.908l38.952-0.002c1.054,0,1.979-0.852,1.979-1.906V47.191C88,46.139,87.164,45,86.11,45L86.11,45z"
				/>
		</g>
		<g>
			<g>
				<polygon fill="#FFFFFF" points="66.596,78.371 74.274,70.691 73.663,70.082 67.026,76.719 67.026,54.891 66.163,54.891 
					66.163,76.719 59.527,70.082 58.918,70.691 				"/>
			</g>
		</g>
	</g>
</g>
</svg>
