<?xml version="1.0" encoding="utf-8"?>
<!-- Generator: Adobe Illustrator 15.0.0, SVG Export Plug-In . SVG Version: 6.00 Build 0)  -->
<!DOCTYPE svg PUBLIC "-//W3C//DTD SVG 1.1//EN" "http://www.w3.org/Graphics/SVG/1.1/DTD/svg11.dtd">
<svg version="1.1" id="Layer_1" xmlns="http://www.w3.org/2000/svg" xmlns:xlink="http://www.w3.org/1999/xlink" x="0px" y="0px"
	 width="150px" height="150px" viewBox="0 0 150 150" enable-background="new 0 0 150 150" xml:space="preserve">
<g id="Page_1">
	<g id="Layer_1_1_">
		<path id="Shape_1_" fill="#1572B6" d="M20.906,135.006L8.869,0h132.262l-12.049,134.983L74.919,150L20.906,135.006z"/>
		<path id="Shape_2_" fill="#33A9DC" d="M75.001,138.522l43.767-12.134l10.296-115.35H75.001V138.522z"/>
		<g id="Group" transform="translate(55.000000, 142.000000)">
			<path id="Shape_3_" fill="#FFFFFF" d="M20.001-82.05H41.91l1.514-16.955H20.001v-16.559h0.057H61.52l-0.396,4.442l-4.07,45.629
				H20.001V-82.05L20.001-82.05z"/>
			<path id="Shape_4_" fill="#EBEBEB" d="M20.1-39.048l-0.072,0.021l-18.44-4.979l-1.18-13.205h-8.96h-7.66l2.318,25.998
				l33.918,9.415l0.076-0.021V-39.048z"/>
			<path id="Shape_5_" fill="#FFFFFF" d="M40.504-66.193L38.51-44.019l-18.467,4.984v17.228l33.943-9.408l0.25-2.798l2.88-32.181
				H40.504z"/>
			<path id="Shape_6_" fill="#EBEBEB" d="M20.058-115.563v10.284v6.233v0.041h-39.942h-0.053l-0.332-3.722l-0.755-8.395
				l-0.396-4.442H20.058z"/>
			<path id="Shape_7_" fill="#EBEBEB" d="M20.001-82.048v10.284v6.233v0.041H1.847H1.794l-0.332-3.722l-0.755-8.394l-0.396-4.442
				L20.001-82.048L20.001-82.048z"/>
		</g>
	</g>
</g>
</svg>
