<?xml version="1.0" encoding="utf-8"?>
<!-- Generator: Adobe Illustrator 15.0.0, SVG Export Plug-In . SVG Version: 6.00 Build 0)  -->
<!DOCTYPE svg PUBLIC "-//W3C//DTD SVG 1.1//EN" "http://www.w3.org/Graphics/SVG/1.1/DTD/svg11.dtd">
<svg version="1.1" id="Capa_1" xmlns="http://www.w3.org/2000/svg" xmlns:xlink="http://www.w3.org/1999/xlink" x="0px" y="0px"
	 width="52px" height="96.123px" viewBox="22.063 0 52 96.123" enable-background="new 22.063 0 52 96.123" xml:space="preserve">
<g>
	<path fill="#FFFFFF" d="M72.09,0.02L59.625,0C45.621,0,36.57,9.285,36.57,23.656v10.907H24.038c-1.083,0-1.96,0.878-1.96,1.961
		v15.803c0,1.083,0.878,1.96,1.96,1.96H36.57v39.876c0,1.083,0.877,1.96,1.96,1.96h16.353c1.082,0,1.959-0.878,1.959-1.96V54.287
		h14.654c1.084,0,1.961-0.877,1.961-1.96l0.006-15.803c0-0.52-0.207-1.018-0.574-1.386c-0.367-0.368-0.867-0.575-1.387-0.575h-14.66
		v-9.246c0-4.444,1.061-6.7,6.85-6.7l8.396-0.003c1.082,0,1.959-0.878,1.959-1.96V1.98C74.047,0.899,73.17,0.022,72.09,0.02z"/>
</g>
</svg>
