<?xml version="1.0" encoding="utf-8"?>
<!-- Generator: Adobe Illustrator 15.0.0, SVG Export Plug-In . SVG Version: 6.00 Build 0)  -->
<!DOCTYPE svg PUBLIC "-//W3C//DTD SVG 1.1//EN" "http://www.w3.org/Graphics/SVG/1.1/DTD/svg11.dtd">
<svg version="1.1" id="Layer_1" xmlns="http://www.w3.org/2000/svg" xmlns:xlink="http://www.w3.org/1999/xlink" x="0px" y="0px"
	 width="150px" height="150px" viewBox="0 0 150 150" enable-background="new 0 0 150 150" xml:space="preserve">
<g>
	<path fill="#464342" d="M10.66,74.998c0,25.467,14.799,47.475,36.26,57.903L16.23,48.814C12.66,56.816,10.66,65.671,10.66,74.998z"
		/>
	<path fill="#464342" d="M118.431,71.752c0-7.952-2.856-13.459-5.306-17.744c-3.262-5.3-6.318-9.788-6.318-15.088
		c0-5.914,4.486-11.42,10.803-11.42c0.287,0,0.557,0.036,0.834,0.052c-11.446-10.485-26.696-16.89-43.445-16.89
		c-22.478,0-42.252,11.533-53.756,29c1.51,0.046,2.932,0.077,4.141,0.077c6.729,0,17.146-0.816,17.146-0.816
		c3.469-0.205,3.877,4.89,0.412,5.3c0,0-3.485,0.41-7.363,0.613l23.429,69.688l14.08-42.227L63.063,44.833
		c-3.465-0.203-6.746-0.613-6.746-0.613c-3.468-0.203-3.061-5.504,0.406-5.3c0,0,10.625,0.816,16.946,0.816
		c6.729,0,17.147-0.816,17.147-0.816c3.471-0.204,3.878,4.89,0.412,5.3c0,0-3.493,0.41-7.363,0.613l23.25,69.162l6.417-21.444
		C116.314,83.651,118.431,77.26,118.431,71.752z"/>
	<path fill="#464342" d="M76.127,80.626l-19.305,56.092c5.764,1.695,11.859,2.622,18.176,2.622c7.492,0,14.677-1.296,21.365-3.647
		c-0.173-0.275-0.33-0.568-0.459-0.887L76.127,80.626z"/>
	<path fill="#464342" d="M131.451,44.13c0.277,2.05,0.434,4.251,0.434,6.617c0,6.528-1.219,13.867-4.893,23.044l-19.652,56.82
		c19.128-11.154,31.992-31.877,31.992-55.612C139.334,63.813,136.477,53.296,131.451,44.13z"/>
	<path fill="#464342" d="M74.998,0.002C33.645,0.002,0,33.646,0,74.998c0,41.357,33.645,75,74.998,75
		c41.352,0,75.002-33.643,75.002-75C149.998,33.646,116.35,0.002,74.998,0.002z M74.998,146.56
		c-39.457,0-71.561-32.103-71.561-71.562c0-39.457,32.103-71.557,71.561-71.557c39.455,0,71.555,32.1,71.555,71.557
		C146.553,114.457,114.453,146.56,74.998,146.56z"/>
</g>
</svg>
