<?xml version="1.0" encoding="utf-8"?>
<!-- Generator: Adobe Illustrator 15.0.0, SVG Export Plug-In . SVG Version: 6.00 Build 0)  -->
<!DOCTYPE svg PUBLIC "-//W3C//DTD SVG 1.1//EN" "http://www.w3.org/Graphics/SVG/1.1/DTD/svg11.dtd">
<svg version="1.1" id="Layer_1" xmlns="http://www.w3.org/2000/svg" xmlns:xlink="http://www.w3.org/1999/xlink" x="0px" y="0px"
	 width="150px" height="150px" viewBox="0 0 150 150" enable-background="new 0 0 150 150" xml:space="preserve">
<g>
	<path fill="#E34F26" d="M20.947,134.766L8.936,0h132.129l-12.012,134.766L74.854,150"/>
	<path fill="#EF652A" d="M75.146,138.281l43.652-12.012l10.254-115.43H75.146"/>
	<path fill="#EBEBEB" d="M75.146,60.938H53.174l-1.465-16.992h23.438V27.539h-0.293H33.545l0.293,4.395l4.102,45.703h37.207V60.938z
		 M75.146,104.004h-0.293l-18.457-4.98L55.225,85.84h-8.789h-7.617l2.051,26.074l33.984,9.375h0.293V104.004z"/>
	<path fill="#FFFFFF" d="M74.854,60.938v16.699h20.508l-2.051,21.387l-18.457,4.98v17.285l33.984-9.375l0.293-2.93l3.809-43.652
		l0.586-4.395h-4.688H74.854z M74.854,27.539v10.254v6.152l0,0h40.137l0,0l0,0l0.293-3.516l0.879-8.496l0.293-4.395H74.854z"/>
</g>
</svg>
