<?xml version="1.0" encoding="utf-8"?>
<!-- Generator: Adobe Illustrator 15.0.0, SVG Export Plug-In . SVG Version: 6.00 Build 0)  -->
<!DOCTYPE svg PUBLIC "-//W3C//DTD SVG 1.1//EN" "http://www.w3.org/Graphics/SVG/1.1/DTD/svg11.dtd">
<svg version="1.1" id="Layer_1" xmlns="http://www.w3.org/2000/svg" xmlns:xlink="http://www.w3.org/1999/xlink" x="0px" y="0px"
	 width="150px" height="150px" viewBox="0 0 150 150" enable-background="new 0 0 150 150" xml:space="preserve">
<g>
	<rect fill="#F7DF1E" width="150" height="150"/>
	<path d="M100.762,117.188c3.021,4.935,6.953,8.561,13.904,8.561c5.841,0,9.572-2.92,9.572-6.953c0-4.833-3.834-6.545-10.262-9.356
		l-3.523-1.513c-10.172-4.333-16.93-9.762-16.93-21.237c0-10.571,8.055-18.619,20.644-18.619c8.962,0,15.404,3.119,20.047,11.285
		l-10.976,7.048c-2.417-4.333-5.023-6.04-9.071-6.04c-4.129,0-6.745,2.619-6.745,6.04c0,4.229,2.619,5.94,8.666,8.56l3.523,1.51
		c11.977,5.136,18.738,10.371,18.738,22.143c0,12.69-9.969,19.643-23.356,19.643c-13.091,0-21.548-6.237-25.687-14.414
		L100.762,117.188z M50.969,118.409c2.215,3.929,4.229,7.25,9.072,7.25c4.631,0,7.552-1.812,7.552-8.856V68.874h14.096v48.119
		c0,14.595-8.558,21.238-21.048,21.238c-11.285,0-17.821-5.841-21.146-12.876L50.969,118.409z"/>
</g>
</svg>
