<?xml version="1.0" encoding="utf-8"?>
<!-- Generator: Adobe Illustrator 15.0.0, SVG Export Plug-In . SVG Version: 6.00 Build 0)  -->
<!DOCTYPE svg PUBLIC "-//W3C//DTD SVG 1.1//EN" "http://www.w3.org/Graphics/SVG/1.1/DTD/svg11.dtd">
<svg version="1.1" id="Layer_1" xmlns="http://www.w3.org/2000/svg" xmlns:xlink="http://www.w3.org/1999/xlink" x="0px" y="0px"
	 width="150px" height="150px" viewBox="0 0 150 150" enable-background="new 0 0 150 150" xml:space="preserve">
<g id="Layer_2">
	<path fill="#0868AC" d="M9.526,36.686c-13.28,19.089-11.627,43.922-1.482,64.205c0.241,0.485,0.494,0.964,0.743,1.442
		c0.159,0.305,0.309,0.614,0.474,0.914c0.093,0.178,0.198,0.354,0.295,0.524c0.173,0.325,0.35,0.631,0.529,0.947
		c0.315,0.555,0.638,1.107,0.969,1.66c0.183,0.303,0.363,0.605,0.553,0.909c0.365,0.591,0.74,1.175,1.124,1.759
		c0.159,0.249,0.315,0.497,0.479,0.738c0.529,0.789,1.07,1.577,1.627,2.35c0.014,0.02,0.03,0.042,0.047,0.063
		c0.088,0.123,0.185,0.245,0.274,0.368c0.482,0.666,0.981,1.322,1.484,1.973c0.185,0.236,0.372,0.476,0.559,0.711
		c0.449,0.565,0.907,1.126,1.371,1.687c0.174,0.208,0.348,0.419,0.523,0.624c0.624,0.736,1.26,1.467,1.91,2.182
		c0.012,0.013,0.027,0.028,0.039,0.041c0.027,0.031,0.05,0.05,0.074,0.082c0.634,0.692,1.284,1.369,1.941,2.046
		c0.204,0.21,0.412,0.42,0.623,0.626c0.509,0.515,1.027,1.019,1.55,1.521c0.212,0.202,0.422,0.409,0.634,0.603
		c0.699,0.658,1.404,1.304,2.124,1.936c0.012,0.009,0.021,0.02,0.034,0.026c0.122,0.108,0.249,0.211,0.369,0.315
		c0.634,0.549,1.28,1.095,1.929,1.629c0.265,0.215,0.533,0.425,0.799,0.638c0.531,0.425,1.068,0.846,1.609,1.258
		c0.285,0.217,0.572,0.437,0.86,0.654c0.597,0.438,1.198,0.871,1.805,1.294c0.222,0.16,0.436,0.316,0.658,0.468
		c0.062,0.043,0.119,0.086,0.18,0.129c0.576,0.396,1.165,0.777,1.752,1.159c0.253,0.168,0.504,0.342,0.759,0.506
		c0.902,0.57,1.818,1.135,2.744,1.681c0.252,0.144,0.506,0.284,0.759,0.428c0.681,0.394,1.365,0.777,2.06,1.155
		c0.376,0.202,0.761,0.393,1.14,0.587c0.491,0.257,0.977,0.516,1.475,0.766c0.113,0.057,0.23,0.11,0.341,0.165
		c0.2,0.097,0.402,0.189,0.603,0.29c0.772,0.369,1.55,0.731,2.336,1.081c0.167,0.075,0.328,0.148,0.494,0.222
		c0.9,0.394,1.808,0.771,2.725,1.133c0.22,0.09,0.442,0.174,0.663,0.26c0.848,0.328,1.708,0.649,2.571,0.952
		c0.109,0.04,0.214,0.075,0.323,0.113c0.947,0.331,1.904,0.638,2.867,0.938c0.229,0.066,0.46,0.141,0.692,0.206
		c0.98,0.296,1.949,0.649,2.96,0.837c64.228,11.711,82.883-38.597,82.883-38.597c-15.669,20.413-43.481,25.798-69.832,19.804
		c-1-0.227-1.967-0.537-2.942-0.825c-0.248-0.073-0.49-0.147-0.733-0.223c-0.951-0.291-1.895-0.598-2.833-0.922
		c-0.128-0.047-0.258-0.094-0.389-0.14c-0.84-0.297-1.67-0.606-2.498-0.926c-0.234-0.094-0.467-0.182-0.7-0.274
		c-0.907-0.358-1.807-0.732-2.696-1.121c-0.183-0.078-0.358-0.159-0.539-0.237c-0.765-0.347-1.521-0.695-2.274-1.058
		c-0.217-0.104-0.436-0.207-0.658-0.315c-0.591-0.289-1.175-0.595-1.759-0.896c-0.39-0.205-0.787-0.399-1.174-0.614
		c-0.713-0.382-1.412-0.778-2.108-1.183c-0.236-0.133-0.475-0.26-0.712-0.398c-0.926-0.543-1.84-1.108-2.746-1.681
		c-0.25-0.159-0.494-0.33-0.74-0.494c-0.657-0.422-1.31-0.854-1.954-1.299c-0.213-0.143-0.419-0.299-0.629-0.441
		c-0.622-0.439-1.237-0.885-1.847-1.336c-0.277-0.205-0.549-0.414-0.818-0.619c-0.56-0.428-1.116-0.859-1.667-1.302
		c-0.249-0.198-0.498-0.397-0.743-0.597c-0.7-0.575-1.392-1.154-2.075-1.748c-0.072-0.063-0.149-0.125-0.227-0.192
		c-0.739-0.647-1.465-1.314-2.182-1.983c-0.209-0.198-0.411-0.393-0.615-0.591c-0.532-0.505-1.054-1.016-1.568-1.538
		c-0.206-0.205-0.412-0.406-0.615-0.612c-0.654-0.669-1.296-1.348-1.924-2.035c-0.031-0.034-0.064-0.065-0.095-0.103
		c-0.665-0.726-1.315-1.469-1.951-2.221c-0.173-0.206-0.34-0.403-0.511-0.606c-0.475-0.572-0.945-1.15-1.404-1.735
		c-0.173-0.209-0.345-0.426-0.515-0.642c-0.554-0.718-1.094-1.434-1.623-2.159c-14.63-19.956-19.886-47.482-8.193-70.086"/>
	<path fill="#0868AC" d="M50.751,20.604c-9.604,13.821-9.083,32.322-1.59,46.939c1.256,2.451,2.668,4.828,4.248,7.091
		c1.439,2.063,3.035,4.517,4.944,6.174c0.692,0.762,1.416,1.506,2.155,2.237c0.187,0.189,0.377,0.373,0.568,0.561
		c0.718,0.695,1.447,1.38,2.201,2.045c0.031,0.024,0.059,0.056,0.09,0.078c0.008,0.01,0.016,0.012,0.021,0.021
		c0.834,0.732,1.696,1.436,2.571,2.128c0.195,0.148,0.387,0.304,0.583,0.456c0.877,0.672,1.772,1.335,2.689,1.964
		c0.028,0.019,0.051,0.04,0.079,0.06c0.404,0.279,0.816,0.54,1.227,0.809c0.196,0.128,0.383,0.265,0.581,0.384
		c0.655,0.421,1.319,0.83,1.994,1.223c0.096,0.06,0.189,0.109,0.282,0.162c0.581,0.335,1.172,0.665,1.764,0.985
		c0.205,0.116,0.415,0.218,0.625,0.326c0.409,0.214,0.817,0.433,1.233,0.64c0.062,0.028,0.128,0.057,0.188,0.083
		c0.846,0.418,1.698,0.818,2.57,1.199c0.185,0.082,0.379,0.156,0.568,0.232c0.698,0.296,1.4,0.586,2.107,0.856
		c0.299,0.113,0.604,0.223,0.903,0.33c0.644,0.238,1.286,0.457,1.934,0.674c0.295,0.094,0.583,0.191,0.876,0.28
		c0.923,0.287,1.837,0.649,2.8,0.811C138.552,107.566,150,69.387,150,69.387c-10.321,14.862-30.308,21.954-51.633,16.418
		c-0.946-0.25-1.88-0.521-2.808-0.813c-0.285-0.086-0.563-0.179-0.846-0.272c-0.659-0.213-1.314-0.439-1.965-0.677
		c-0.298-0.108-0.595-0.218-0.887-0.329c-0.711-0.273-1.417-0.558-2.112-0.853c-0.193-0.082-0.385-0.156-0.57-0.242
		c-0.877-0.381-1.739-0.781-2.587-1.201c-0.438-0.215-0.868-0.439-1.299-0.662c-0.25-0.128-0.5-0.256-0.749-0.385
		c-0.551-0.3-1.102-0.609-1.642-0.926c-0.129-0.073-0.263-0.144-0.394-0.222c-0.67-0.393-1.333-0.797-1.987-1.213
		c-0.202-0.129-0.397-0.27-0.601-0.402c-0.433-0.279-0.863-0.564-1.288-0.851c-0.912-0.63-1.801-1.291-2.679-1.96
		c-0.203-0.159-0.404-0.315-0.604-0.475C66.017,66.951,58.618,56.879,55.1,45.459c-3.687-11.844-2.892-25.141,3.495-35.93"/>
	<path fill="#0868AC" d="M85.424,8.589c-5.661,8.333-6.217,18.681-2.29,27.884c4.144,9.767,12.633,17.431,22.541,21.063
		c0.41,0.153,0.817,0.289,1.232,0.428c0.18,0.056,0.36,0.118,0.543,0.171c0.583,0.183,1.162,0.397,1.766,0.511
		c27.383,5.29,34.809-14.052,36.785-16.898c-6.506,9.367-17.438,11.615-30.854,8.361c-1.058-0.258-2.224-0.642-3.246-1.003
		c-1.31-0.467-2.599-0.999-3.853-1.601c-2.383-1.144-4.652-2.533-6.759-4.123C89.286,34.273,81.83,16.899,89.663,2.748"/>
</g>
</svg>
