<?xml version="1.0" encoding="utf-8"?>
<!-- Generator: Adobe Illustrator 15.0.0, SVG Export Plug-In . SVG Version: 6.00 Build 0)  -->
<!DOCTYPE svg PUBLIC "-//W3C//DTD SVG 1.1//EN" "http://www.w3.org/Graphics/SVG/1.1/DTD/svg11.dtd">
<svg version="1.1" id="model" xmlns="http://www.w3.org/2000/svg" xmlns:xlink="http://www.w3.org/1999/xlink" x="0px" y="0px"
	 width="494px" height="843px" viewBox="4.428 0 494 843" enable-background="new 4.428 0 494 843" xml:space="preserve">
<g>
	<rect x="127.5" y="274" fill="#C18E78" width="38" height="61"/>
	<path fill="#1A1A1A" d="M23.137,842.995h221.93c0.783-20.981,1.832-32.819,1.832-32.819c-2.109-51.657-1.582-81.909-1.582-81.909
		l-4.029-13.271H52.401l-19.626,19.355l-5.411,13.466c0,0-5.007,44.013-2.372,54.025C26.46,807.422,25,823.827,23.137,842.995z"/>
	<path opacity="0.2" d="M165.5,287.298V274h-38v14.645C135.5,290.234,148.5,290.937,165.5,287.298z"/>
	<path fill="#C18E78" d="M245.508,172.492c0,0,9.359-20.037,19.736-4.471c10.377,15.566-17.744,39.644-17.744,39.644l-7.016,4.071
		c0,0-26.303,67.076-80.041,72.265c-53.739,5.188-76.34-20.015-84.494-29.65c-8.153-9.636-17.786-36.32-17.786-36.32
		s-33.275-16.678-27.346-45.956c0,0,4.683-11.119,12.683-0.372V81h204.418L245.508,172.492z"/>
	<path fill="#1A1A1A" d="M247.547,176c0,0,8.523-48.475,12.971-65.523l0.744-5.799c0,0,3.334-22.635,1.109-30.788
		c-2.223-8.154-5.93-26.698-22.236-30.404c0,0,1.404-6.699-3.648-16.945c0,0-9.322-13.82-12.287-15.673s-7.412-8.529-31.131-9.27
		S121.541-3.964,92.633,7.896c0,0-33.355,22.975-39.656,30.758c-6.3,7.783-23.348,44.844-48.55,57.445c0,0,24.46-1.112,30.761-6.671
		c0,0,7.042,66.339,12.601,86.723l6.02,3.664l2.134-47.025l5.431-11.203l3.093-18.446c0,0,35.208-8.524,52.997-4.447
		c17.79,4.077,97.101-8.153,114.519-13.342l4.445,25.572l7.074,17.529L243.84,176H247.547z"/>
	<path fill="#1A1A1A" d="M213.727,166.232c-1.471,7.939-5.164,13.91-8.248,13.337c-3.088-0.571-4.396-7.47-2.928-15.407
		c1.473-7.939,5.164-13.91,8.252-13.338C213.889,151.395,215.197,158.294,213.727,166.232z"/>
	
		<ellipse transform="matrix(-0.9833 0.1821 -0.1821 -0.9833 225.3148 309.7051)" fill="#1A1A1A" cx="98.438" cy="165.197" rx="5.683" ry="14.617"/>
	<path fill="#1A1A1A" d="M190.861,112.182c0,0,15.104-2.325,21.996-0.306c6.895,2.019,11.988,9.694,3.07,9.562
		C207.006,121.304,175.328,113.295,190.861,112.182z"/>
	<path fill="#1A1A1A" d="M74.711,126.712c0,0,0.55-10.816,25.862-10.161c25.313,0.655-13.398,8.857-13.398,8.857
		S71.806,131.588,74.711,126.712z"/>
	<path fill="#B78776" d="M494.285,404.475c-8.105-2.569-34.938,14.627-34.938,14.627l-5.453,1.62l4.873-2.213
		c0,0,19.283-12.057,24.424-14.973c5.139-2.916,12.871-5.979,4.768-8.549c-8.104-2.569-34.936,14.627-34.936,14.627l-10.033,2.979
		l7.76-4.561l16.207-8.895c17-8.104,10.279-8.593,10.279-8.593c-4.35-6.815-30.045,10.365-30.045,10.365l-32.203,13.308
		c-0.879-0.557-1.203-1.369-1.277-2.159l5.281-5.5c4.744-5.032,2.637-19.082,2.637-19.082s-2.504-12.65-8.039-1.453
		c-5.535,11.198-0.395,7.777-22.139,25.007c-21.742,17.229-18.184,27.836-26.463,31.394c-8.277,3.559-28.881,9.093-54.182,11.86
		c-25.301,2.767-37.555,5.93-37.555,5.93c-1.977-10.278-13.836-39.137-13.836-39.137l-55.74,13.836l7.512,37.16
		c0,0,10.277,46.252,20.16,57.32s22.533,0,76.297-23.719s74.162-30.226,86.115-31.823c16.271-2.174,38.016-12.057,38.016-12.057
		l34.193-17.395c0,0,0.988-0.79,4.547-3.558s17.592-20.359,17.592-20.359s7.336-8.731-3.49-4.551
		c2.059-1.249,3.803-2.288,4.898-2.91C494.654,410.108,502.389,407.044,494.285,404.475z M464.98,432.146
		c0,0-6.379,2.006-14.699,4.824c-0.768-0.486-0.889-1.206-0.73-1.918l15.541-7.057c0,0,5.531-3.458,11.459-7.118
		C473.404,423.575,468.754,427.784,464.98,432.146z"/>
	<path fill="#603813" d="M241.287,684.258l1.898,25.35c0,0,0.529,3.954-1.898,5.931s-35.963,17.394-69.598,25.3
		c-33.636,7.906-88.586,15.813-135.628-3.953c0,0-5.535-3.953-4.744-7.906c0.791-3.953,3.163-17.789,3.163-17.789L241.287,684.258z"
		/>
	<path opacity="0.2" d="M32.949,719.997c21.703,10.942,102.06,42.45,209.27-23.296l-0.932-12.443L34.479,711.189
		C34.479,711.189,33.74,715.501,32.949,719.997z"/>
	<path fill="#1A1A1A" d="M72.826,727.002c0,0-3.558,21.742-2.372,25.3l-7.906-3.011c0,0,0.381-20.442,3.946-26.109L72.826,727.002z"
		/>
	<path fill="#1A1A1A" d="M106.604,730.157c0,0-0.176,17.843,0.615,25.843h6.282v-28.998L106.604,730.157z"/>
	<path fill="#1A1A1A" d="M229.398,696.958c0,0,2.74,23.719,1.949,30.044l7.512-5.534c0,0-0.115-20.557-3.418-32.416L229.398,696.958
		z"/>
	<path opacity="0.2" d="M119.699,491.934c-28.703,12.784-53.205,38.316-53.205,38.316s1.916,3.926,4.813,9.668
		c7.177-7.731,28.691-29.03,54.96-37.528L119.699,491.934z"/>
	<g>
		<g>
			<path fill="#1A1A1A" d="M102.624,221.905c1.927,6.854,9.804,9.823,15.948,11.651c10.121,3.013,21.054,3.613,31.55,3.58
				c10.145-0.032,20.414-0.906,30.298-3.253c4.571-1.086,13.081-2.993,14.678-8.311c0.327-1.09-2.564-0.692-2.871,0.33
				c-1.431,4.766-10.577,6.106-14.544,6.965c-9.312,2.015-19.003,2.579-28.505,2.549c-9.414-0.029-18.958-0.827-28.073-3.268
				c-5.89-1.577-13.777-4.469-15.616-11.012C105.186,220.065,102.325,220.841,102.624,221.905L102.624,221.905z"/>
		</g>
	</g>
	<path fill="#B3B3B3" d="M206.5,700.009v26.993c0,0-22.758,12.913-53.067,13.966c0,0-2.674-15.331-1.268-23.679l-6.446,2.069
		c-1.317,9.225,0.87,28.463,0.87,28.463c45.329-2.372,64.911-19.238,64.911-19.238v-30.044L206.5,700.009z"/>
	<path fill="#999999" d="M192.08,721.468c0,0-22.066,8.066-39.233,9.567c0,0-2.541,1.529,0.326,2.601c0,0,17.295-0.901,39.334-9.797
		C192.508,723.839,194.32,722.159,192.08,721.468z"/>
	<path opacity="0.2" d="M227,448.697l-13.441,26.882l-0.439,4.579c2.26,9.058,6.279,23.969,10.846,35.446l11.756-0.89
		c9.514-49.02,37.531-54.5,37.531-54.5c-1.074-5.583-5.063-16.641-8.48-25.584L227,448.697z"/>
	<path fill="#EDECEB" d="M152.285,327.729l10.278,5.535l4.744-4.744l9.488-19.766c0,0,2.938,1.387,7.734,3.72
		c19.768,9.612,52.754,15.113,60.26,25.929l4.744,6.325c0,0,11.859,65.623,27.16,105.099c0,0-9.768,3.021-20.439,8.753
		c-9.822,5.274-20.557,11.859-20.557,11.859l-4.35,54.455c0,0,9.162,81.93,9.953,108.021c0,0,6.256,24.51,8.627,33.207
		c2.373,8.698-2.768,20.558-2.768,20.558s-29.252,18.975-57.32,26.882c-21.963,6.186-82.237,35.377-158.726,1.084L21.83,701.1
		c0,0,7.5-22.326,9.284-37.35c1.785-15.021,15.226-36.343,12.063-61.657c-3.163-25.313-26.091-153.396-26.091-153.396l-11.859-32.68
		c0,0,1.977-7.643,2.767-13.968s7.906-29.253,7.906-29.253s2.971-17.525,29.649-33.47c11.543-6.898,51.456-21.403,66.677-25.564
		L152.285,327.729z"/>
	<polygon opacity="0.2" points="182.725,343.542 185.887,350.46 198.344,318.062 192.607,315.475 	"/>
	<polygon opacity="0.2" points="134.891,353.821 140.03,361.727 153.668,333.857 162.563,333.264 152.285,327.729 	"/>
	<polygon fill="#F2F2F2" points="127.5,300.848 151.356,327.729 133.318,362.567 109.221,313.786 127.5,292.892 	"/>
	<polygon fill="#F2F2F2" points="173.52,316.399 180.295,353.821 195.543,313.786 173.406,292.892 165.5,287.298 165.5,328.52 	"/>
	<polygon opacity="0.2" points="165.5,328.52 165.5,287.407 172.615,316.399 	"/>
	<polygon opacity="0.2" points="127.5,300.848 123.712,297.063 127.5,292.892 	"/>
	<path opacity="0.2" d="M119.868,491.392c4.481-1.845,7.907,0,7.907,0l9.093,17.394c0,0,64.505-10.86,96.13-4.556l-0.859,10.881
		l-104.677,9.79l-17.081-28.315C110.381,496.585,115.388,493.236,119.868,491.392z"/>
	<path fill="#C18E78" d="M358.869,509.104c5.352-0.546,15.242-1.639,24.031-3.063c12.816-2.079,34.064-4.658,33.182-10.352
		c-0.73-4.706-42.287,0.236-56.682,2.093c-0.176-0.688-0.18-1.363-0.1-1.961c2.789-0.579,6.205-1.225,10.23-1.878
		c12.818-2.079,34.064-4.658,33.182-10.351c-0.643-4.15-28.912-1.854-44.199-0.304v-0.001c-21.223,1.498-27.543,1.822-27.543,1.822
		s10.576-7.139,12.268-13.884c1.217-4.85,2.52-12.498-4.318-5.873c-6.836,6.626-10.109,7.967-26.35,13.098
		c-16.238,5.13-36.609,23.13-36.609,23.13s-4.848,11.831-58.582,9.431s-82.09,5.741-82.09,5.741l-15.59-24.819
		c-28.703,12.784-53.205,38.316-53.205,38.316s17.993,36.888,27.301,50.268c9.309,13.38,34.39,3.096,66.35-3.769
		c31.961-6.865,86.482-22.087,106.297-29.065c19.813-6.977,27.754,0.735,58.213-4.507c22.514-3.876,30.049-5.592,32.508-6.343
		c1.395-0.191,2.881-0.412,4.461-0.668c12.818-2.079,34.064-4.657,33.182-10.352c-0.543-3.509-20.846-2.408-36.346-1.047
		c0.09-0.464,0.213-0.893,0.332-1.246c4.822-0.789,12.92-2.113,21.08-3.436c12.816-2.079,34.195-4.648,33.311-10.342
		c-0.752-4.852-42.188-0.921-54.42,0.347C358.777,509.748,358.814,509.415,358.869,509.104z"/>
	<g opacity="0.2">
		<path d="M66.494,530.25"/>
		<path d="M234.838,557.472c-24.031,6.932-54.059,14.846-74.693,19.277c-31.96,6.864-57.042,17.148-66.35,3.769
			c-9.308-13.38-27.301-50.268-27.301-50.268c-4.58,4.474-7.504,8.382-7.504,8.382l-41.904-89.935l40.323,102.387l9.085-6.324
			l19.18,35.974c0,0,6.918,13.836,25.498,12.058c18.58-1.779,124.27-29.445,124.27-29.445L234.838,557.472L234.838,557.472z"/>
	</g>
	<path opacity="0.2" d="M235.697,470.439c0,0,4.939-3.029,11.18-6.623l-8.414-36.729L235.697,470.439z"/>
	<path opacity="0.2" d="M151.963,842.995h17.375c18.588-38.623,37.5-60.653,37.5-60.653l-39.137,15.021l-34.392,11.332l27.935,1.581
		L151.963,842.995z"/>
</g>
</svg>
