<?xml version="1.0" encoding="utf-8"?>
<!-- Generator: Adobe Illustrator 15.0.0, SVG Export Plug-In . SVG Version: 6.00 Build 0)  -->
<!DOCTYPE svg PUBLIC "-//W3C//DTD SVG 1.1//EN" "http://www.w3.org/Graphics/SVG/1.1/DTD/svg11.dtd">
<svg version="1.1" id="Layer_1" xmlns="http://www.w3.org/2000/svg" xmlns:xlink="http://www.w3.org/1999/xlink" x="0px" y="0px"
	 width="316px" height="843px" viewBox="0 0 316 843" enable-background="new 0 0 316 843" xml:space="preserve">
<g id="model">
	<path fill="#1A1A1A" d="M144.766,843c3.045-32,5.485-57.337,5.485-57.337l15.514,1.019c0,0,1.097,23.318,2.669,56.318h96.223
		c0.251-55,1.471-110.563,1.471-110.563l-12.495-27.195L43.874,720.313l-9.282,39.731c0,0,2.587,35.955,5.023,82.955H144.766z"/>
	<rect x="135" y="273" fill="#C18E78" width="38" height="55"/>
	<path opacity="0.2" d="M173,286.678V273h-38v15.021C143,289.606,156,290.307,173,286.678z"/>
	<path fill="#C18E78" d="M251.096,171.712c0,0,9.332-19.754,19.683-4.23c10.35,15.525-17.696,39.655-17.696,39.655l-6.998,4.117
		c0,0-26.234,66.93-79.832,72.105c-53.597,5.175-76.139-19.946-84.271-29.557c-8.131-9.611-17.739-36.219-17.739-36.219
		s-31.997-16.63-26.081-45.832c0,0,4.84-11.086,13.84-0.367V80h201.498L251.096,171.712z"/>
	<path fill="#1A1A1A" d="M253.128,175c0,0,8.501-48.013,12.938-65.016l0.741-5.616c0,0,3.325-22.492,1.107-30.624
		c-2.219-8.132-5.915-26.585-22.179-30.282c0,0,1.399-6.661-3.638-16.88c0,0-9.298-13.773-12.255-15.621
		c-2.958-1.848-7.394-8.502-31.05-9.241c-23.657-0.74-71.34-5.544-100.172,6.285c0,0-33.268,22.917-39.552,30.679
		S35.782,83.412,10.647,95.979c0,0,24.396-1.108,30.679-6.652c0,0,7.024,66.164,12.568,86.495l6.003,3.654l2.129-46.901
		l5.417-11.173l3.085-18.398c0,0,35.115-8.501,52.858-4.435c17.742,4.066,96.845-8.132,114.218-13.307l4.435,25.505l7.054,17.146
		L249.432,175H253.128z"/>
	
		<ellipse transform="matrix(0.9833 0.1822 -0.1822 0.9833 33.6143 -36.1905)" fill="#1A1A1A" cx="213.824" cy="164.897" rx="5.668" ry="14.577"/>
	<path fill="#1A1A1A" d="M98.838,165.93c1.466,7.917,5.15,13.873,8.229,13.301c3.078-0.57,4.384-7.449,2.918-15.366
		c-1.468-7.918-5.151-13.874-8.231-13.303C98.679,151.132,97.372,158.012,98.838,165.93z"/>
	<path fill="#1A1A1A" d="M193.349,132.575c0,0,13.328-7.394,20.475-7.886c7.147-0.493,14.566,4.928,6.176,7.886
		C211.607,135.532,179.2,138.983,193.349,132.575z"/>
	<path fill="#1A1A1A" d="M93.322,124.657c0,0,6.407-8.697,27.107,5.771c20.699,14.468-16.02,0-16.02,0
		S88.225,127.116,93.322,124.657z"/>
	<g>
		<g>
			<path fill="#1A1A1A" d="M194.915,223.496c-2.07,13.286-23.075,14.631-33.51,16.103c-14.766,2.082-33.489,4.899-47.027-3.042
				c-0.74-0.434-3.147,0.731-2.684,1.003c14.586,8.556,34.686,5.252,50.541,3.017c10.835-1.528,33.333-3.615,35.506-17.553
				C197.863,222.234,195.03,222.756,194.915,223.496L194.915,223.496z"/>
		</g>
	</g>
	<path fill="#603813" d="M43.703,694.079c0,0-2.711,24.256,0.337,26.216c3.042,1.958,12.257,2.169,12.257,2.169l91.986-2.444
		c0,0,51.717,5.56,110.717-9.772v-27.653l-212.457,6.096L43.703,694.079z"/>
	
		<rect x="92.337" y="701.813" transform="matrix(0.9975 -0.07 0.07 0.9975 -49.688 8.4232)" fill="#1A1A1A" width="5.913" height="22.179"/>
	
		<rect x="206.135" y="697.378" transform="matrix(0.9994 0.0343 -0.0343 0.9994 24.5039 -6.762)" fill="#1A1A1A" width="5.915" height="25.078"/>
	
		<rect x="234.228" y="692.943" transform="matrix(0.9994 0.0343 -0.0343 0.9994 24.3682 -7.7294)" fill="#1A1A1A" width="5.915" height="25.077"/>
	
		<rect x="64.245" y="701.813" transform="matrix(0.9975 -0.07 0.07 0.9975 -49.757 6.4559)" fill="#1A1A1A" width="5.913" height="22.18"/>
	<path fill="#B3B3B3" d="M187.348,690.888c-2.362-5.263-68.994,2.599-68.994,2.599l-1.497,6.532l1.732,23.594
		c0,0,24.412,2.653,67.029-2.453C185.618,721.159,189.711,696.149,187.348,690.888z M181.55,717.915
		c-37.276,4.469-58.627,2.146-58.627,2.146l-1.515-20.636l1.309-5.713c0,0,58.277-6.877,60.347-2.271
		C185.126,696.042,181.55,717.915,181.55,717.915z"/>
	<path opacity="0.2" d="M46.543,688.689l-2.571,5.39c0,0-0.818,6.137-1.113,12.489c11.741,7.577,32.556,15.301,61.374,3.679
		c0,0,50.238-10.272,60.587-8.613c10.35,1.658,46.449,9.001,70.056,0.895c23.608-8.106,24.125-8.106,24.125-8.106v-11.828
		L46.543,688.689z"/>
	<path fill="#EDECEB" d="M24.323,374.563c0,0,50.271-35.485,71.957-47.561c21.685-12.075,25.136-11.089,25.136-11.089l20.699,3.451
		l7.886,2.465l9.856-1.972l33.491-6.761c0,0,45.366,20.068,65.079,26.475s31.049,16.265,31.049,16.265l11.829,11.828
		c0,0,2.463,11.336,2.463,17.249c0,5.915,6.408,91.67,12.322,108.92c0,0-58.158,4.928-68.999,0l10.841,80.827
		c0,0-5.419,53.721-0.984,74.913c4.437,21.192,7.887,20.207,7.887,20.207l-1.972,13.8l-34.007,14.785c0,0-1.972,2.958-24.642,0
		c-22.672-2.956-48.792-4.928-48.792-4.928s-6.901-0.985-12.814,0.493c-5.915,1.479-55.693,14.785-55.693,14.785
		s-14.785,3.448-22.671,0c-7.885-3.45-23.656-17.25-23.656-17.25s6.407-45.835,13.307-67.027
		c6.9-21.192,12.323-51.257,12.323-51.257l-1.974-74.421c0,0-27.6,7.393-63.577,6.9c0,0,13.8-81.813,14.785-98.077
		c0.985-16.265,2.958-26.614,2.958-26.614L24.323,374.563z"/>
	<path opacity="0.2" d="M158.379,325.031l14.045,34.5l12.322-40.661l-4.309-3.169l-20.58,4.154l-9.856,1.972l-7.886-2.465
		l-20.699-3.451c0,0-0.942-0.262-4.892,1.183l9.819,44.652l15.771-36.963l7.639,2.217L158.379,325.031z"/>
	<path opacity="0.2" d="M65.86,559.746l0.357,13.435c0,0-2.299,12.732-5.802,27.464c20.122-4.05,73.713-15.5,123.686-31.896
		c0,0,28.807,10.497,72.959,15.833c0.483-6.047,0.872-9.922,0.872-9.922l-1.749-13.047L73.115,537.244L65.86,559.746z"/>
	<path fill="#F2F2F2" d="M173,299.156c0,0-7.557,16.756-13.471,20.7l17.414,43.863l18.975-47.807L173,294.475V299.156z"/>
	<polygon fill="#F2F2F2" points="135,297.678 142.008,319.363 120.867,361.748 112.902,312.956 135,292.256 	"/>
	<path opacity="0.2" d="M63.506,439.372l13.552,84.276l162.642-7.393l3.448-82.059l-9.608,49.531c0,0-35.171,1.725-45.309,8.132
		c0,0-84.805-16.264-106.243,4.436L63.506,439.372z"/>
	<path fill="#C18E78" d="M26.505,504.729c0,0,39.465-4.737,47.105-8.434l3.447,15.374l92.165,2.369l21.438,43.124
		c0,0-106.782,35.221-117.789,36.225c-11.01,1.004-22.18,6.654-29.082-9.61C36.892,567.514,26.505,504.729,26.505,504.729z"/>
	<path opacity="0.2" d="M173.389,562.817c7.687-2.503,13.426-4.388,15.909-5.204l-97.587-45.565l-14.653-0.378
		C77.058,511.67,134.834,552.838,173.389,562.817z"/>
	<path fill="#C18E78" d="M291.939,495.405c0,0-5.421,65.946-9.856,74.818c-4.436,8.871-4.929,11.828-13.307,11.828
		c-8.377,0-67.026-14.785-110.397-32.034c-43.37-17.251-81.321-38.348-81.321-38.348s9.366-31.145,101.035-13.402l60.128,8.871
		l1.479-15.278c0,0,13.553,2.705,28.334,4.157l16.022,0.278L291.939,495.405z"/>
	<path fill="#C18E78" d="M188.23,499.763c0,0,33.973-15.048,51.469-7.902l-1.479,15.278L188.23,499.763z"/>
	<polygon opacity="0.2" points="184.499,499.213 235.018,502.211 239.699,491.86 238.221,507.139 	"/>
	<path fill="#999999" d="M154,709.521c0,0.817-0.662,1.479-1.479,1.479h-30.043c-0.816,0-1.479-0.662-1.479-1.479v-1.041
		c0-0.817,0.662-1.479,1.479-1.479h30.043c0.816,0,1.479,0.662,1.479,1.479V709.521z"/>
</g>
</svg>
