<?xml version="1.0" encoding="utf-8"?>
<!-- Generator: Adobe Illustrator 15.0.0, SVG Export Plug-In . SVG Version: 6.00 Build 0)  -->
<!DOCTYPE svg PUBLIC "-//W3C//DTD SVG 1.1//EN" "http://www.w3.org/Graphics/SVG/1.1/DTD/svg11.dtd">
<svg version="1.1" id="Layer_1" xmlns="http://www.w3.org/2000/svg" xmlns:xlink="http://www.w3.org/1999/xlink" x="0px" y="0px"
	 width="150px" height="150px" viewBox="0 0 150 150" enable-background="new 0 0 150 150" xml:space="preserve">
<g id="Layer_3">
	<g transform="translate(0.738281, 121.593)">
		<path fill="#00618A" d="M-0.738-14.769h4.941v-19.514l7.65,17.012c0.903,2.059,2.138,2.787,4.562,2.787s3.611-0.729,4.514-2.787
			l7.65-17.012v19.514h4.942v-19.482c0-1.9-0.761-2.819-2.329-3.294c-3.754-1.173-6.272-0.158-7.413,2.376L16.272-18.38l-7.27-16.79
			c-1.093-2.534-3.659-3.549-7.413-2.375c-1.568,0.475-2.328,1.394-2.328,3.294V-14.769z"/>
	</g>
	<g transform="translate(100.444, 142.416)">
		<path fill="#00618A" d="M-62.075-51.477h4.94v10.752c-0.046,0.584,0.187,1.955,2.895,1.998c1.381,0.021,10.659,0,10.746,0v-12.801
			h4.952c0.022,0-0.005,17.456-0.005,17.53c0.028,4.305-5.342,5.24-7.816,5.313h-15.604v-3.324c0.027,0,15.592,0.004,15.632,0
			c3.18-0.337,2.804-1.918,2.804-2.45v-1.296h-10.504c-4.886-0.046-7.999-2.178-8.037-4.631
			C-62.076-40.612-61.968-51.368-62.075-51.477z"/>
	</g>
	<g transform="translate(171.496, 124.557)">
		<path fill="#E48E00" d="M-105.787-17.733h14.207c1.664,0,3.279-0.348,4.563-0.951c2.138-0.98,3.184-2.312,3.184-4.054v-3.61
			c0-1.426-1.188-2.757-3.516-3.644c-1.236-0.476-2.757-0.729-4.23-0.729h-5.987c-1.996,0-2.946-0.603-3.184-1.933
			c-0.047-0.158-0.047-0.285-0.047-0.442v-2.249c0-0.127,0-0.254,0.047-0.413c0.238-1.013,0.761-1.298,2.518-1.457
			c0.143,0,0.333-0.031,0.476-0.031h14.113v-3.295h-13.875c-1.996,0-3.042,0.128-3.991,0.413c-2.946,0.919-4.229,2.375-4.229,4.909
			v2.882c0,2.219,2.519,4.119,6.747,4.563c0.476,0.031,0.951,0.063,1.426,0.063h5.132c0.19,0,0.381,0,0.522,0.032
			c1.569,0.127,2.234,0.411,2.709,0.981c0.285,0.286,0.381,0.571,0.381,0.887v2.883c0,0.348-0.236,0.792-0.713,1.172
			c-0.427,0.381-1.141,0.634-2.091,0.698c-0.19,0-0.333,0.031-0.522,0.031h-13.637L-105.787-17.733L-105.787-17.733z"/>
	</g>
	<g transform="translate(308.656, 124.557)">
		<path fill="#E48E00" d="M-190.166-23.466c0,3.39,2.518,5.29,7.602,5.67c0.476,0.032,0.951,0.064,1.426,0.064h12.878v-3.295
			h-12.973c-2.897,0-3.991-0.729-3.991-2.471V-40.54h-4.941V-23.466L-190.166-23.466z"/>
	</g>
	<g transform="translate(236.74, 124.666)">
		<path fill="#E48E00" d="M-145.924-23.403v-11.745c0-2.983,2.096-4.794,6.237-5.365c0.429-0.063,0.904-0.095,1.333-0.095h9.38
			c0.476,0,0.904,0.031,1.381,0.095c4.144,0.571,6.237,2.382,6.237,5.365v11.745c0,2.421-0.889,3.717-2.939,4.561l4.868,4.395
			h-5.738l-3.938-3.556l-3.965,0.252h-5.284c-0.905,0-1.856-0.127-2.905-0.413C-144.4-19.022-145.924-20.673-145.924-23.403z
			 M-140.589-23.688c0,0.158,0.046,0.318,0.095,0.509c0.285,1.365,1.571,2.127,3.523,2.127h4.488l-4.124-3.724h5.739l3.596,3.248
			c0.662-0.354,1.1-0.895,1.252-1.588c0.047-0.159,0.047-0.317,0.047-0.476v-11.27c0-0.127,0-0.286-0.047-0.445
			c-0.287-1.27-1.572-1.999-3.476-1.999h-7.476c-2.19,0-3.618,0.952-3.618,2.444V-23.688z"/>
	</g>
	<g transform="translate(241.59, -4.64258)">
		<path fill="#00618A" d="M-96.847,83.193c-3.037-0.083-5.357,0.199-7.343,1.036c-0.563,0.237-1.462,0.244-1.555,0.95
			c0.311,0.325,0.359,0.811,0.605,1.209c0.474,0.767,1.273,1.794,1.986,2.333c0.779,0.588,1.583,1.218,2.419,1.728
			c1.486,0.905,3.146,1.425,4.577,2.332c0.844,0.535,1.682,1.209,2.505,1.813c0.407,0.299,0.681,0.764,1.209,0.95
			c0-0.027,0-0.057,0-0.085c-0.278-0.354-0.349-0.84-0.604-1.21c-0.374-0.374-0.749-0.749-1.123-1.124
			c-1.098-1.457-2.491-2.736-3.974-3.799c-1.182-0.849-3.826-1.995-4.319-3.368c-0.027-0.03-0.057-0.058-0.085-0.087
			c0.837-0.094,1.817-0.398,2.591-0.604c1.299-0.348,2.46-0.258,3.801-0.605c0.604-0.173,1.209-0.345,1.813-0.518
			c0-0.116,0-0.23,0-0.346c-0.678-0.695-1.161-1.615-1.9-2.245c-1.934-1.647-4.045-3.292-6.218-4.665
			c-1.205-0.761-2.695-1.255-3.974-1.9c-0.431-0.217-1.185-0.329-1.469-0.69c-0.671-0.855-1.036-1.94-1.555-2.938
			c-1.085-2.088-2.149-4.368-3.109-6.564c-0.655-1.499-1.083-2.975-1.9-4.319c-3.923-6.447-8.144-10.34-14.684-14.166
			c-1.392-0.813-3.067-1.135-4.838-1.555c-0.95-0.057-1.899-0.115-2.851-0.173c-0.58-0.242-1.183-0.952-1.727-1.296
			c-2.167-1.368-7.723-4.346-9.328-0.432c-1.014,2.47,1.515,4.881,2.418,6.133c0.635,0.878,1.447,1.863,1.9,2.851
			c0.298,0.648,0.35,1.3,0.605,1.986c0.627,1.692,1.174,3.532,1.985,5.096c0.411,0.792,0.864,1.625,1.384,2.332
			c0.317,0.435,0.863,0.626,0.948,1.296c-0.532,0.746-0.563,1.904-0.863,2.851c-1.351,4.257-0.841,9.547,1.122,12.697
			c0.604,0.967,2.022,3.041,3.975,2.245c1.706-0.695,1.326-2.85,1.814-4.751c0.109-0.431,0.043-0.748,0.258-1.036
			c0,0.028,0,0.057,0,0.087c0.52,1.035,1.037,2.072,1.556,3.108c1.15,1.854,3.193,3.79,4.924,5.097
			c0.897,0.678,1.604,1.85,2.765,2.244c0-0.027,0-0.057,0-0.086c-0.029,0-0.058,0-0.087,0c-0.224-0.35-0.576-0.494-0.863-0.776
			c-0.677-0.663-1.428-1.486-1.987-2.245c-1.574-2.137-2.964-4.476-4.231-6.911c-0.605-1.162-1.131-2.445-1.642-3.627
			c-0.196-0.457-0.195-1.146-0.605-1.383c-0.559,0.866-1.381,1.567-1.814,2.591c-0.69,1.637-0.779,3.633-1.035,5.702
			c-0.152,0.054-0.084,0.017-0.174,0.085c-1.203-0.289-1.626-1.528-2.073-2.591c-1.131-2.688-1.341-7.014-0.345-10.106
			c0.257-0.8,1.422-3.32,0.95-4.06c-0.225-0.737-0.967-1.164-1.383-1.728c-0.513-0.698-1.026-1.614-1.382-2.419
			c-0.926-2.096-1.358-4.447-2.333-6.564c-0.466-1.014-1.253-2.038-1.899-2.938c-0.717-0.997-1.518-1.731-2.074-2.937
			c-0.195-0.429-0.465-1.114-0.172-1.555c0.093-0.298,0.225-0.421,0.519-0.519c0.501-0.386,1.896,0.129,2.418,0.346
			c1.385,0.575,2.542,1.123,3.715,1.9c0.563,0.372,1.132,1.096,1.813,1.295c0.259,0,0.518,0,0.777,0
			c1.216,0.279,2.578,0.087,3.715,0.433c2.008,0.609,3.807,1.559,5.441,2.591c4.979,3.144,9.049,7.619,11.834,12.957
			c0.447,0.858,0.643,1.68,1.036,2.591c0.796,1.838,1.798,3.73,2.591,5.527c0.791,1.794,1.561,3.604,2.678,5.096
			c0.588,0.785,2.856,1.206,3.887,1.642c0.722,0.307,1.906,0.624,2.591,1.036c1.308,0.789,2.575,1.728,3.802,2.591
			C-98.824,81.466-96.941,82.412-96.847,83.193z"/>
	</g>
	<g transform="translate(272.504, 24.8027)">
		<path fill="#00618A" d="M-166.369,20.838c-0.634-0.011-1.082,0.069-1.557,0.173c0,0.029,0,0.058,0,0.086c0.029,0,0.059,0,0.086,0
			c0.303,0.621,0.836,1.021,1.21,1.556c0.288,0.605,0.575,1.209,0.864,1.813c0.027-0.028,0.057-0.058,0.086-0.086
			c0.534-0.377,0.779-0.979,0.776-1.899c-0.214-0.227-0.245-0.509-0.432-0.778C-165.582,21.344-166.06,21.14-166.369,20.838z"/>
	</g>
	<g transform="translate(371.609, 165.56)">
		<path fill="#E48E00" d="M-228.893-62.123c0,2.175,1.719,3.642,3.643,3.642c1.923,0,3.642-1.466,3.642-3.642
			s-1.72-3.643-3.642-3.643C-227.174-65.765-228.893-64.3-228.893-62.123z M-222.425-62.123c0,1.65-1.263,2.884-2.825,2.884
			c-1.583,0-2.826-1.233-2.826-2.884c0-1.651,1.243-2.885,2.826-2.885C-223.688-65.008-222.425-63.776-222.425-62.123z
			 M-224.27-60.045h0.815l-1.194-1.826c0.641-0.067,1.126-0.379,1.126-1.136c0-0.846-0.533-1.195-1.563-1.195h-1.621v4.157h0.699
			v-1.798h0.65L-224.27-60.045z M-226.008-62.425v-1.194h0.806c0.418,0,0.922,0.078,0.922,0.563c0,0.583-0.456,0.631-0.98,0.631
			H-226.008z"/>
	</g>
</g>
</svg>
