<?xml version="1.0" encoding="utf-8"?>
<!-- Generator: Adobe Illustrator 15.0.0, SVG Export Plug-In . SVG Version: 6.00 Build 0)  -->
<!DOCTYPE svg PUBLIC "-//W3C//DTD SVG 1.1//EN" "http://www.w3.org/Graphics/SVG/1.1/DTD/svg11.dtd">
<svg version="1.1" id="Capa_1" xmlns="http://www.w3.org/2000/svg" xmlns:xlink="http://www.w3.org/1999/xlink" x="0px" y="0px"
	 width="85px" height="150px" viewBox="32.5 0 85 150" enable-background="new 32.5 0 85 150" xml:space="preserve">
<g>
	<path fill="#FFFFFF" d="M106.558,0H43.444c-6.04,0-10.916,4.897-10.916,10.927v128.157c0,6.023,4.875,10.916,10.916,10.916h63.111
		c6.029,0,10.916-4.893,10.916-10.916V10.927C117.472,4.897,112.586,0,106.558,0z M59.428,6.636h31.157
		c0.787,0,1.426,1.175,1.426,2.629c0,1.454-0.639,2.634-1.426,2.634H59.428c-0.792,0-1.421-1.181-1.421-2.634
		C58.007,7.811,58.636,6.636,59.428,6.636z M75.006,139.215c-3.843,0-6.969-3.126-6.969-6.975c0-3.848,3.126-6.963,6.969-6.963
		c3.833,0,6.958,3.115,6.958,6.963C81.965,136.089,78.839,139.215,75.006,139.215z M109.295,115.334H40.712V18.437h68.583V115.334z"
		/>
</g>
</svg>
