<?xml version="1.0" encoding="utf-8"?>
<!-- Generator: Adobe Illustrator 15.0.0, SVG Export Plug-In . SVG Version: 6.00 Build 0)  -->
<!DOCTYPE svg PUBLIC "-//W3C//DTD SVG 1.1//EN" "http://www.w3.org/Graphics/SVG/1.1/DTD/svg11.dtd">
<svg version="1.1" id="Capa_1" xmlns="http://www.w3.org/2000/svg" xmlns:xlink="http://www.w3.org/1999/xlink" x="0px" y="0px"
	 width="150px" height="150px" viewBox="0 0 150 150" enable-background="new 0 0 150 150" xml:space="preserve">
<path fill="#1BB0CE" d="M149.236,6.143c-0.668-0.585-1.618-0.722-2.424-0.348L1.297,73.406C0.514,73.77,0.009,74.552,0,75.415
	c-0.009,0.864,0.479,1.656,1.254,2.037l41.181,20.21c0.755,0.371,1.656,0.287,2.33-0.217l40.04-29.926L53.372,99.852
	c-0.448,0.461-0.677,1.093-0.627,1.734l3.129,40.758c0.069,0.902,0.675,1.675,1.536,1.957c0.23,0.076,0.466,0.113,0.7,0.113
	c0.641,0,1.264-0.275,1.698-0.777l21.857-25.328l27.02,12.91c0.588,0.279,1.266,0.291,1.862,0.032
	c0.596-0.259,1.05-0.765,1.244-1.384L149.896,8.5C150.163,7.653,149.904,6.729,149.236,6.143z"/>
</svg>
